<?xml version="1.0" encoding="utf-8"?>
<!-- Generator: Adobe Illustrator 23.1.1, SVG Export Plug-In . SVG Version: 6.00 Build 0)  -->
<svg version="1.1" id="Layer_1" xmlns="http://www.w3.org/2000/svg" xmlns:xlink="http://www.w3.org/1999/xlink" x="0px" y="0px"
	 viewBox="0 0 154 207" style="enable-background:new 0 0 154 207;" xml:space="preserve">
<style type="text/css">
	.st0{fill:#FFFFFF;}
	.st1{fill:#EE5050;}
</style>
<g>
	<g>
		<path class="st0" d="M137.8,110.7c16-34.3,12.5-74.9-9.2-106l-1.8-2.5l-2.9-0.4C86.3-2.7,48.7,13.2,26,43.4
			C15,58,8.2,74.9,5.7,92.4c0.6,0.1,1.2,0.3,1.7,0.6c2.3,1.3,3,4.4,1.8,6.6c0,0.2,0,0.3,0,0.5c0.2,1.2,0.3,2.5,0.2,3.7
			c-0.2,2.7-2.1,4.7-4.8,4.9c0.1,13.6,2.9,27.3,8.3,40.2l1.2,2.8l3,0.4c6.5,0.8,12.9,1,19.3,0.6c2.7,5.8,5.8,11.4,9.5,16.8l1.7,2.5
			l3-0.3c15.1-1.3,29.6-5.9,42.5-13.1c0,0,0,0,0,0.1c2.4-2.6,5.8-4.5,9.1-5.6c0,0,0-0.1,0-0.1C117.4,142.3,129.8,127.9,137.8,110.7z
			 M120.2,13.3c11.2,30.5,6.2,65-13.4,91c-5.7,7.6-12.5,14.2-20,19.6c-6-7.4-13.4-13.9-21.8-18.9c-8.4-5.1-17.5-8.5-26.9-10.4
			c1.3-9.2,4-18.2,8-26.8C59.9,38.3,88,17.8,120.2,13.3z M16,93.2c2.3-15.6,8.4-30.6,18.2-43.6C45.7,34.4,61.4,23.2,79,17
			C60.8,27.7,45.9,43.8,36.7,63.5c-4.5,9.6-7.4,19.6-8.8,29.8C23.9,93,20,93,16,93.2z M21.4,142.2c-4.8-12.4-6.8-25.5-6.3-38.5
			c3.9-0.3,7.9-0.3,11.9-0.1c-0.6,13.2,1.3,26.4,5.5,38.9C28.7,142.6,25,142.5,21.4,142.2z M43,141.6c-4.3-11.7-6.3-24.2-5.8-36.6
			c7.8,1.7,15.5,4.6,22.5,8.9c7,4.2,13.2,9.6,18.4,15.7C67.3,135.8,55.4,139.9,43,141.6z M52.7,161c-2-3.1-3.8-6.3-5.5-9.6
			c13.1-2.2,25.6-6.7,36.9-13.4c2.1,3.4,4,6.8,5.5,10.5C78.5,155.1,65.9,159.4,52.7,161z M98.4,142.8c-1.6-3.6-3.5-7.1-5.6-10.4
			c8.3-6.1,15.8-13.4,22.2-21.8c13.1-17.3,20.3-38.1,21.3-59.2c2.8,18.4,0.2,37.5-7.9,54.9C121.6,121,111.1,133.4,98.4,142.8z"/>
		<path class="st0" d="M12.2,111.4c-0.2-0.5-0.4-1.1-0.4-1.7c-0.8-8.1-0.5-18.3,3.1-26.1c-1,0.7-2,1.3-3,2c-1.7,1.1-3.4,0.8-4.7-0.2
			c-2.2,8.5-3,17.4-2.6,26.3c0.1,0,0.1,0,0.2,0c1.4,0.1,2.6,0.8,3.5,1.9C9,112,10.6,111.3,12.2,111.4z"/>
		<path class="st1" d="M75.4,84.8c8.8,5.3,20.2,2.4,25.5-6.3s2.4-20.2-6.3-25.5c-8.8-5.3-20.2-2.4-25.4,6.3S66.7,79.5,75.4,84.8z
			 M89.2,61.9c3.9,2.3,5.1,7.4,2.8,11.2c-2.3,3.9-7.4,5.1-11.2,2.8c-3.9-2.3-5.1-7.4-2.8-11.2S85.3,59.5,89.2,61.9z"/>
		<path class="st0" d="M90.3,160.1c7.4-3.7,14.3-8.5,20.6-14.3c0,0-0.1-0.1-0.1-0.1c-0.8-1.1-1-2.5-0.8-3.9
			c-2.4,0.6-4.7-1.4-5.2-3.9c-6,5.6-12.8,10.1-20,13.4c0.6,1.7,0.2,3.6-0.9,4.9c0.8,0.2,1.6,0.5,2.4,0.7c1.9,0.6,2.7,2,2.8,3.7
			c0.1-0.1,0.3-0.1,0.4-0.2c0,0,0.1,0,0.1,0c0,0,0.1,0,0.1,0c0.1-0.1,0.3-0.1,0.4-0.1C90.1,160.2,90.2,160.1,90.3,160.1z"/>
	</g>
</g>
<path id="XMLID_4378_" class="st0" d="M23.5,144.2c-1-0.6-2.2-0.7-3.3-0.3c-0.4,0.2-10.8,3.9-16,15.6c-4.6,10.4-3.7,23.5,2.9,38.8
	c0.3,0.8,0.9,1.4,1.6,1.9c0.7,0.4,1.6,0.6,2.4,0.5c16.5-2,28.3-7.7,35-17c7.5-10.4,5.5-21.2,5.4-21.7c-0.2-1.1-0.9-2.1-1.9-2.7
	L23.5,144.2z M39.6,178.9c-4.9,6.6-13.6,11-26.1,12.9c-4.6-11.8-5.2-21.5-1.9-29.1c2.6-6,7.1-9.1,9.5-10.3l7.8,4.5l-8.4,14.6
	c-1.2,2-0.5,4.5,1.4,5.7c1.9,1.1,4.4,0.4,5.6-1.6l8.4-14.6l7.8,4.5C43.8,168.2,43.4,173.7,39.6,178.9z"/>
</svg>
