<?xml version="1.0" encoding="utf-8"?>
<!-- Generator: Adobe Illustrator 16.0.3, SVG Export Plug-In . SVG Version: 6.00 Build 0)  -->
<!DOCTYPE svg PUBLIC "-//W3C//DTD SVG 1.1//EN" "http://www.w3.org/Graphics/SVG/1.1/DTD/svg11.dtd">
<svg version="1.1" id="Capa_1" xmlns="http://www.w3.org/2000/svg" xmlns:xlink="http://www.w3.org/1999/xlink" x="0px" y="0px"
	 width="228px" height="327px" viewBox="0 0 228 327" enable-background="new 0 0 228 327" xml:space="preserve">
<path fill="none" stroke="#FFFFFF" stroke-width="10" stroke-miterlimit="10" d="M154.078,13.125"/>
<path fill="none" stroke="#1B489D" stroke-width="10" stroke-miterlimit="10" d="M147.21,2.641"/>
<path fill="none" stroke="#FFFFFF" stroke-width="10" stroke-miterlimit="10" d="M209.08,102.218c0,37.44-22.38,69.66-54.49,84
	c-0.24,0.11-0.49,0.221-0.74,0.32l0.01,0.02c-11.23,4.9-23.62,7.61-36.66,7.61c-1.04,0-2.07-0.02-3.09-0.06
	c-2.87-0.09-5.7-0.32-8.5-0.67l-0.01-0.021l-25.34-44.85h36.93c4.86,0,9.54-0.74,13.94-2.13c0.02-0.011,0.03-0.011,0.05-0.021
	c18.76-5.93,32.36-23.48,32.36-44.19c0-24.02-18.271-43.77-41.67-46.11c-1.54-0.16-3.1-0.24-4.68-0.24H79.98l-20.25-35.76
	l-0.02-0.04c-3.31-4.78-8.41-8.23-14.34-9.38c-0.47-0.1-0.95-0.18-1.43-0.23c-0.24-0.04-0.48-0.07-0.73-0.08
	c-0.41-0.05-0.84-0.08-1.26-0.09c-0.27-0.01-0.55-0.02-0.82-0.02h76.01C167.92,10.278,209.08,51.438,209.08,102.218z"/>
<path fill="none" stroke="#FFFFFF" stroke-width="10" stroke-miterlimit="10" d="M60.07,20.598c-0.11-0.16-0.21-0.32-0.34-0.48"/>
<path fill="none" stroke="#FFFFFF" stroke-width="10" stroke-miterlimit="10" d="M45.37,10.698c-0.47-0.09-0.95-0.17-1.43-0.23
	c-0.24-0.03-0.48-0.06-0.73-0.08c-0.42-0.04-0.84-0.07-1.26-0.09"/>
<path fill="none" stroke="#FFFFFF" stroke-width="10" stroke-miterlimit="10" d="M21.56,44.918l-0.24-0.43
	c-1.96-3.35-3.07-7.25-3.07-11.41c0-12.59,10.21-22.8,22.8-22.8c0.03,0,0.05,0,0.08,0"/>
<path fill="none" stroke="#FFFFFF" stroke-width="10" stroke-miterlimit="10" d="M131.13,146.438l-0.01-0.021
	c0.02-0.01,0.03-0.01,0.05-0.02c18.73-5.94,32.31-23.48,32.31-44.17c0-24-18.24-43.74-41.61-46.11"/>
<path fill="#FFFFFF" stroke="#FFFFFF" stroke-width="10" stroke-miterlimit="10" d="M105.61,193.438
	c-0.05-0.011-0.11-0.011-0.16-0.021l-25.34-44.85h0.15l25.34,44.85L105.61,193.438z"/>
<path fill="none" stroke="#FFFFFF" stroke-width="10" stroke-miterlimit="10" d="M163.54,102.228c0,20.71-13.6,38.26-32.36,44.19
	l-0.01-0.02l-44.6-78.96l-6.53-11.56h37.15c1.58,0,3.14,0.08,4.68,0.24C145.27,58.458,163.54,78.208,163.54,102.228z"/>
<path fill="none" stroke="#FFFFFF" stroke-width="10" stroke-miterlimit="10" d="M52.01,28.319"/>
<path fill="none" stroke="#FFFFFF" stroke-width="10" stroke-miterlimit="10" d="M45.37,10.698c5.03,0.95,9.48,3.57,12.74,7.26"/>
<path fill="none" stroke="#FFFFFF" stroke-width="10" stroke-miterlimit="10" d="M41.95,10.298c-0.27-0.01-0.55-0.02-0.82-0.02
	c-0.03,0-0.05,0-0.08,0c-12.59,0-22.8,10.21-22.8,22.8c0,4.16,1.11,8.06,3.07,11.41l0.24,0.43c3.49,5.72,9.42,9.79,16.34,10.74
	c1.03,0.15,2.08,0.22,3.15,0.22h38.93"/>
<path fill="none" stroke="#FFFFFF" stroke-width="10" stroke-miterlimit="10" d="M40.99,148.568h22.8v45.6h-22.8
	c-12.07,0-21.95-9.38-22.74-21.24c-0.04-0.52-0.06-1.04-0.06-1.56c0-11.53,8.56-21.061,19.66-22.58
	C38.88,148.638,39.92,148.568,40.99,148.568z"/>
<path fill="none" stroke="#FFFFFF" stroke-width="10" stroke-miterlimit="10" d="M106.02,194.168H64v-45.6h16.11l25.34,44.85
	c0.05,0.01,0.11,0.01,0.16,0.021L106.02,194.168z"/>
<path fill="none" stroke="#1B489D" stroke-width="10" stroke-miterlimit="10" d="M-19.205,124.588"/>
<path fill="none" stroke="#FFFFFF" stroke-width="10" stroke-miterlimit="10" d="M63.85,290.288c0,12.59-10.21,22.79-22.8,22.79
	s-22.8-10.2-22.8-22.79v-0.05c0.002-0.819,0.047-1.629,0.133-2.426"/>
<path fill="none" stroke="#FFFFFF" stroke-width="10" stroke-miterlimit="10" d="M209.14,290.288c0,12.59-10.21,22.79-22.8,22.79
	c-8.76,0-16.37-4.94-20.18-12.19l-0.061-0.109l-60.23-106.61h11.33c13.04,0,25.43-2.71,36.66-7.61l51.39,90.98
	C207.71,281.178,209.14,285.568,209.14,290.288z"/>
<line fill="none" stroke="#FFFFFF" stroke-width="10" stroke-miterlimit="10" x1="206.6" y1="279.928" x2="205.25" y2="277.538"/>
<path fill="none" stroke="#FFFFFF" stroke-width="10" stroke-miterlimit="10" d="M131.18,146.418c-0.02,0.01-0.03,0.01-0.05,0.021
	c-4.4,1.39-9.08,2.13-13.94,2.13H80.11l-47.1-83.38l-11.45-20.27c3.49,5.72,9.42,9.79,16.34,10.74c1.03,0.15,2.08,0.22,3.15,0.22
	h38.99l6.53,11.56l44.6,78.96L131.18,146.418z"/>
<line fill="none" stroke="#FFFFFF" stroke-width="10" stroke-miterlimit="10" x1="18.25" y1="290.24" x2="18.25" y2="172.368"/>
<polyline fill="none" stroke="#FFFFFF" stroke-width="10" stroke-miterlimit="10" points="63.85,194.168 63.85,290.288 
	63.85,290.558 "/>
<g>
	<line fill="none" stroke="#FFFFFF" stroke-width="10" stroke-miterlimit="10" x1="80.26" y1="148.568" x2="80.11" y2="148.568"/>
</g>
</svg>
